<svg xmlns="http://www.w3.org/2000/svg" width="84" height="20" fill="none" viewBox="0 0 84 20">
    <path fill="url(#paint0_linear)" fill-rule="evenodd" d="M12.27 11.539c-1.925-2.495-1.681-4.864 2.824-6.561 1.258-.481 2.323-.747 3.183-.937-.09-.127-.18-.241-.283-.355l-.064-.025c-.27-.076-.526-.165-.796-.241.052-.013.103-.013.154-.025l.616.19c-.064-.09-.14-.165-.218-.254l-.051-.05c-.462.063-.976.139-1.579.24-.937.165-2.053.406-3.337.798-4.569 1.368-7.033 3.762-8.227 6.777-.757 1.912-1.014 4.116-.924 6.485h-.026l.026.025v.038h.039C5.377 19.114 7.65 20 10.152 20c3.17 0 6.007-1.431 7.868-3.686-2.426-1.52-4.53-3.192-5.75-4.775zm4.402-8.043c.27.089.552.165.822.24l.654.19-.154.039c-.23-.064-.449-.14-.68-.203-.282-.076-.565-.165-.834-.24.064 0 .128-.013.192-.026zm-.744.127c.282.076.565.164.86.24.244.064.488.14.731.203-.064.013-.128.038-.192.05-.257-.075-.5-.139-.757-.215-.296-.076-.59-.164-.873-.24.09 0 .154-.013.23-.038zm-.86.19c.308.088.616.164.924.253.257.076.526.14.796.215-.077.026-.141.05-.218.064-.283-.076-.552-.14-.809-.216-.32-.088-.642-.164-.95-.253.077-.025.167-.05.257-.063zm-1.027.253c.321.089.655.177 1.001.253l.886.228c-.09.026-.18.064-.27.089-.308-.076-.616-.152-.91-.228-.334-.089-.681-.165-1.015-.253.103-.038.206-.064.308-.09zm-1.232.342c.36.089.706.177 1.065.253l.989.228c-.026.013-.052.026-.09.038-.077.026-.154.064-.218.089l-1.002-.228-1.116-.266c.128-.025.257-.076.372-.114zm-1.425.52c.386.088.783.176 1.181.265.36.076.719.165 1.078.24-.115.051-.23.115-.333.165-.373-.076-.745-.152-1.117-.24-.41-.089-.821-.177-1.22-.266.142-.05.27-.114.411-.165zm-1.591.76c.436.088.886.176 1.335.265.398.076.796.152 1.206.228-.115.089-.23.165-.346.253l-1.232-.228c-.475-.088-.95-.177-1.412-.266.154-.088.295-.177.449-.253zM8.124 6.813c.54.09 1.079.178 1.63.266.463.076.925.152 1.412.228-.09.127-.18.254-.244.393-.513-.076-1-.152-1.488-.228-.604-.089-1.181-.177-1.759-.279.141-.126.295-.253.45-.38zM6.507 8.5c.693.089 1.412.177 2.144.266.629.076 1.283.14 1.938.215 0 .19.013.38.051.57-.744-.063-1.489-.139-2.208-.202-.795-.076-1.578-.165-2.335-.241.128-.215.27-.405.41-.608zm-1.322 2.52c.976.064 1.977.127 3.004.178 1.04.05 2.117.101 3.221.14.167.265.372.519.578.785l-3.748-.076c-1.142-.038-2.246-.076-3.324-.127.077-.304.167-.595.27-.9zm-.68 3.838c1.463-.025 2.952-.063 4.48-.114 1.77-.063 3.593-.152 5.454-.253.398.317.822.646 1.27.963-2.104.177-4.132.342-6.134.469-1.733.113-3.414.19-5.07.278-.013-.456-.013-.9 0-1.342z" clip-rule="evenodd"/>
    <path fill="url(#paint1_linear)" fill-rule="evenodd" d="M10.14 0c2.913 0 5.544 1.216 7.392 3.154-.513.063-1.13.152-1.822.266-.963.165-2.118.405-3.44.785C7.547 5.56 4.71 8.03 3.003 11.146c-.667 1.229-1.18 2.571-1.553 4.003C.526 13.654 0 11.894 0 10.006 0 4.484 4.543 0 10.14 0zm8.265 4.205c-.77.19-1.707.469-2.785.9-4.685 1.887-4.159 4.293-1.335 6.65 1.232 1.038 2.913 2.064 4.774 3.014.783-1.419 1.22-3.04 1.22-4.775 0-2.154-.693-4.155-1.874-5.789z" clip-rule="evenodd"/>
    <path fill="#C03" d="M25.156 13.882V6.434h1.476v7.448h-1.476zM33.242 13.882h-1.425v-3.09c0-.444-.077-.76-.23-.963-.155-.203-.373-.304-.655-.304-.142 0-.283.025-.437.089-.154.05-.295.139-.423.24-.129.102-.257.228-.36.368-.102.139-.18.291-.23.468v3.192h-1.425v-5.51h1.283v1.026c.206-.354.5-.62.898-.823.386-.19.835-.291 1.323-.291.346 0 .628.063.847.19.218.126.385.291.513.494.115.202.205.43.257.696.051.254.064.52.064.786v3.432zM34.82 13.882v-3.787h-.718V9.018h.718v-.684c0-.684.167-1.228.5-1.634.335-.405.797-.595 1.361-.595.45 0 .912.114 1.374.33l-.283 1.063c-.102-.05-.23-.1-.372-.139-.141-.038-.282-.063-.398-.063-.5 0-.744.33-.744.988v.734h1.36v1.077h-1.36v3.787H34.82zM41.084 13.983c-.45 0-.86-.075-1.22-.228-.36-.152-.667-.367-.924-.62-.257-.266-.45-.57-.577-.912-.142-.342-.206-.71-.206-1.077 0-.38.064-.747.206-1.089.14-.342.333-.646.577-.912.257-.266.565-.469.924-.62.36-.153.77-.229 1.22-.229.449 0 .86.076 1.219.228.36.152.667.368.911.621.257.266.45.57.578.912.128.342.205.71.205 1.09 0 .38-.064.734-.205 1.076-.142.342-.321.646-.578.912-.244.266-.552.469-.911.62-.36.152-.77.228-1.22.228zm-1.464-2.85c0 .241.039.47.116.672.077.203.18.367.308.52.128.151.282.265.462.341.18.076.372.127.578.127.205 0 .397-.038.577-.127.18-.076.334-.19.462-.342.129-.152.231-.316.308-.52.077-.202.116-.43.116-.67 0-.241-.039-.456-.116-.659-.077-.203-.18-.38-.308-.532-.128-.152-.282-.266-.462-.342-.18-.076-.372-.127-.578-.127-.205 0-.397.038-.577.127-.18.089-.334.203-.462.342-.128.152-.231.317-.308.52-.077.215-.116.43-.116.67zM53.353 13.882h-.731v-3.065c0-.633-.103-1.102-.308-1.406-.206-.304-.514-.456-.912-.456-.218 0-.41.038-.603.114-.192.076-.36.19-.526.33-.167.139-.295.303-.424.493-.115.19-.218.406-.282.634v3.356h-.719v-3.065c0-.646-.102-1.127-.295-1.419-.192-.291-.5-.443-.911-.443-.424 0-.796.14-1.117.43-.32.292-.564.672-.706 1.14v3.357h-.718V8.41h.654v1.242c.231-.418.526-.748.899-.988.372-.24.782-.355 1.219-.355.475 0 .847.127 1.13.393.282.253.449.595.513 1.026.513-.938 1.232-1.406 2.143-1.406.308 0 .578.05.796.164.218.114.385.266.526.482.128.202.231.456.282.747.065.291.09.62.09.975v3.192zM57.255 13.983c-.41 0-.77-.075-1.103-.228-.334-.151-.63-.354-.873-.62-.244-.253-.437-.557-.565-.9-.141-.341-.205-.709-.205-1.076 0-.38.064-.747.205-1.09.141-.341.334-.645.578-.899.244-.253.539-.468.872-.62.334-.152.706-.228 1.091-.228.398 0 .77.076 1.104.228.334.152.63.367.873.62.244.254.436.558.578.9.14.342.205.709.205 1.089s-.064.735-.206 1.077c-.14.342-.32.646-.564.899-.244.253-.54.469-.873.62-.346.152-.719.228-1.117.228zm-2.015-2.811c0 .304.052.595.154.86.103.267.257.495.437.698.18.202.398.354.641.468.244.114.501.165.783.165.283 0 .54-.063.783-.177.244-.114.462-.28.642-.47.18-.202.334-.43.436-.696.103-.266.154-.557.154-.861 0-.304-.05-.583-.154-.861-.102-.266-.256-.507-.436-.71-.18-.202-.398-.354-.642-.468-.243-.114-.5-.178-.783-.178-.282 0-.539.064-.783.178-.243.114-.449.278-.641.481-.18.203-.334.443-.437.71-.102.253-.154.544-.154.86zM63.942 13.983c-.436 0-.847-.114-1.206-.329-.372-.215-.655-.494-.86-.836v1.064h-.655V6.206h.719V9.55c.244-.367.552-.671.898-.899.347-.228.758-.342 1.22-.342.385 0 .744.076 1.052.24.308.165.578.38.783.647.218.266.385.57.5.912.116.342.18.684.18 1.051 0 .38-.064.747-.205 1.09-.141.341-.321.645-.552.899-.231.253-.513.456-.834.607-.334.152-.668.228-1.04.228zm-.18-.633c.308 0 .59-.063.835-.19.256-.126.475-.291.654-.494.18-.202.321-.443.424-.71.103-.265.154-.531.154-.81 0-.291-.051-.57-.141-.836s-.231-.506-.411-.709c-.18-.203-.385-.367-.629-.494s-.513-.19-.808-.19c-.219 0-.424.038-.617.114-.192.076-.372.177-.539.304-.166.127-.308.266-.436.43-.128.165-.231.343-.32.52v1.697c.025.19.102.368.23.532.128.165.27.304.45.43.179.115.359.216.564.28.218.088.41.126.59.126zM67.793 7.258V6.206h.719v1.052h-.719zm0 6.624V8.41h.719v5.472h-.719zM70.154 6.206h.719v6.435c0 .203.05.367.166.481.116.114.27.178.475.178.077 0 .167-.013.283-.026.115-.012.205-.05.295-.088l.128.582c-.141.05-.295.101-.5.14-.193.037-.36.05-.5.05-.335 0-.591-.088-.784-.278-.192-.19-.282-.444-.282-.786V6.206zM73.017 7.258V6.206h.718v1.052h-.718zm0 6.624V8.41h.718v5.472h-.718zM77.996 13.616c-.038.026-.103.05-.192.089-.077.038-.18.076-.283.101-.102.038-.23.064-.36.089-.14.025-.282.038-.423.038-.154 0-.308-.025-.449-.063-.141-.038-.27-.102-.372-.19-.103-.09-.193-.203-.257-.33-.064-.14-.09-.291-.09-.468V8.955h-.77v-.57h.77v-1.85h.72v1.85h1.283v.57h-1.284v3.724c.013.203.09.355.218.443.129.089.283.14.45.14.205 0 .385-.039.539-.102.154-.063.256-.114.295-.14l.205.596zM80.306 13.983c-.257 0-.5-.038-.731-.126-.219-.089-.424-.203-.59-.367-.168-.152-.296-.33-.386-.545-.09-.203-.141-.43-.141-.671 0-.241.051-.456.167-.66.115-.202.27-.379.475-.518.205-.152.449-.266.731-.342.283-.076.59-.127.937-.127.283 0 .578.025.86.076.295.05.552.114.783.215v-.494c0-.481-.141-.861-.41-1.152-.27-.292-.655-.431-1.156-.431-.282 0-.577.05-.873.165-.295.114-.603.278-.91.481l-.257-.469c.718-.481 1.411-.709 2.092-.709.693 0 1.245.19 1.642.583.398.38.59.912.59 1.596v2.47c0 .202.09.29.27.29v.634c-.115.026-.218.026-.282.026-.18 0-.334-.051-.436-.14-.103-.088-.154-.215-.167-.38l-.026-.43c-.257.329-.578.582-.963.76-.359.177-.782.265-1.219.265zm.167-.544c.372 0 .719-.076 1.04-.215.32-.14.552-.33.718-.558.065-.063.116-.126.142-.202.025-.076.05-.14.05-.203v-.9c-.243-.088-.487-.164-.756-.215-.257-.05-.526-.076-.796-.076-.513 0-.924.102-1.245.317-.32.215-.475.481-.475.836 0 .165.039.33.103.469.064.152.154.278.282.38.116.114.257.19.424.253.154.076.32.114.513.114zm-.552-7.233h.757l.642.976-.475.177-.924-1.153z"/>
    <defs>
        <linearGradient id="paint0_linear" x1="10.921" x2="10.921" y1="7.993" y2="21.174" gradientUnits="userSpaceOnUse">
            <stop stop-color="#066"/>
            <stop offset="1" stop-color="#006156"/>
        </linearGradient>
        <linearGradient id="paint1_linear" x1="10.139" x2="10.139" y1="-.004" y2="15.154" gradientUnits="userSpaceOnUse">
            <stop stop-color="#C03"/>
            <stop offset="1" stop-color="#960033"/>
        </linearGradient>
    </defs>
</svg>
