<?xml version="1.0" encoding="UTF-8"?>
<svg id="Livello_1" xmlns="http://www.w3.org/2000/svg" version="1.1" viewBox="0 0 87 13">
  <!-- Generator: Adobe Illustrator 30.2.1, SVG Export Plug-In . SVG Version: 2.1.1 Build 1)  -->
  <defs>
    <style>
      .st0 {
        fill: #3dae2b;
      }

      .st1 {
        fill: #93d500;
      }
    </style>
  </defs>
  <g id="Livello_11">
    <g>
      <g>
        <path class="st1" d="M87,0c-2.7,0-6.1.2-8.3,4.9-1.3,2.7-2.7,6-5.2,7.4h0c2.7,0,6.1-.2,8.3-4.9,1.3-2.7,2.7-6,5.2-7.4h0Z"/>
        <path class="st0" d="M75.5,3.1c-.5-.5-1.2-.8-2-.8h0c-.8,0-1.4.3-2,.8-2.1,2.1.8,5.8,2,7.3h0c1.2-1.5,4.1-5.2,2-7.3ZM73.5,6.1c-.6,0-1.1-.5-1.1-1.1s.5-1.1,1.1-1.1,1.1.5,1.1,1.1-.5,1.1-1.1,1.1Z"/>
      </g>
      <path class="st0" d="M5.3,9.5l-1.2-1.8h-1.9v.8c0,1-.8,1.8-1.8,1.8h-.3V1.1h4c2.4,0,4,1.3,4,3.3s-.7,2.4-1.9,2.9l2.1,2.9h-1.3c-.6,0-1.1-.3-1.5-.8h0ZM3.8,2.9h-1.7v3.2h1.7c1.3,0,1.9-.6,1.9-1.6s-.7-1.6-1.9-1.6h0Z"/>
      <path class="st0" d="M16.3,7.4h-5.3c.2.9.9,1.4,2,1.4s.6,0,.9-.1c.7-.2,1.4,0,1.8.5h.1c-.7.9-1.6,1.3-2.9,1.3-2.4,0-4-1.5-4-3.6s1.6-3.6,3.8-3.6,3.7,1.4,3.7,3.6,0,.4,0,.6h0ZM11,6.2h3.5c-.1-.9-.8-1.5-1.7-1.5s-1.6.6-1.7,1.5Z"/>
      <path class="st0" d="M23.3,3.1c1.1,0,1.9.9,1.9,1.9v4.1c0,2.6-1.4,3.8-4,3.8s-2.6-.3-3.5-1h0c.4-.7,1.3-1.1,2.1-.8.4.1.8.2,1.2.2,1.4,0,2.1-.7,2.1-1.9v-.3c-.5.6-1.3.9-2.2.9-1.9,0-3.5-1.3-3.5-3.4s1.6-3.4,3.5-3.4,1.8.3,2.3,1v-1.1h0ZM23.2,6.6c0-1-.8-1.7-1.8-1.7s-1.9.7-1.9,1.7.8,1.7,1.9,1.7,1.8-.7,1.8-1.7Z"/>
      <path class="st0" d="M26.8,1.1c0-.6.5-1.1,1.3-1.1s1.3.5,1.3,1.1-.5,1.2-1.3,1.2-1.3-.5-1.3-1.1ZM29,3.3h0v5c0,1.1-.9,2-2,2h0v-5c0-1.1.9-2,2-2Z"/>
      <path class="st0" d="M30.5,6.8c0-2.1,1.6-3.6,3.9-3.6s3.9,1.5,3.9,3.6-1.6,3.6-3.9,3.6-3.9-1.5-3.9-3.6ZM36.2,6.8c0-1.2-.8-1.9-1.8-1.9s-1.8.7-1.8,1.9.8,1.9,1.8,1.9,1.8-.7,1.8-1.9Z"/>
      <path class="st0" d="M46.8,6.3v4h-2v-3.7c0-1.1-.5-1.7-1.4-1.7s-1.7.6-1.7,1.9v3.5h-2v-5.2c0-1.1.9-1.9,1.9-1.9h0v1c.6-.6,1.4-.9,2.3-.9,1.7,0,2.9,1,2.9,3.1h0Z"/>
      <path class="st0" d="M55.9,5v5.3h-1.9v-.8c-.5.6-1.3.9-2.2.9-2,0-3.5-1.4-3.5-3.6s1.5-3.6,3.5-3.6,1.6.3,2.1.8v-.9h.1c1.1,0,1.9.9,1.9,1.9h0ZM53.9,6.8c0-1.2-.8-1.9-1.8-1.9s-1.8.7-1.8,1.9.8,1.9,1.8,1.9,1.8-.7,1.8-1.9Z"/>
      <path class="st0" d="M57.7.6h.3c1,0,1.8.8,1.8,1.8v7.9h-.3c-1,0-1.8-.8-1.8-1.8V.6Z"/>
      <path class="st0" d="M68.4,7.4h-5.3c.2.9.9,1.4,2,1.4s.6,0,.9-.1c.7-.2,1.4,0,1.8.5h.1c-.7.9-1.6,1.3-2.9,1.3-2.4,0-4-1.5-4-3.6s1.6-3.6,3.8-3.6,3.7,1.4,3.7,3.6,0,.4,0,.6h0ZM63.1,6.2h3.5c-.1-.9-.8-1.5-1.7-1.5s-1.6.6-1.7,1.5Z"/>
    </g>
  </g>
</svg>