<?xml version="1.0" encoding="UTF-8"?>
<svg id="a" xmlns="http://www.w3.org/2000/svg" version="1.1" viewBox="0 0 1014.67 115.81">
  <!-- Generator: Adobe Illustrator 29.5.1, SVG Export Plug-In . SVG Version: 2.1.0 Build 141)  -->
  <defs>
    <style>
      .st0 {
        fill: #e0e0e0;
      }

      .st1, .st2 {
        fill: #00685e;
      }

      .st3 {
        fill: #8e262a;
      }

      .st4 {
        fill: #009e60;
      }

      .st5 {
        fill: #004339;
      }

      .st2 {
        fill-rule: evenodd;
      }

      .st6 {
        fill: #155b30;
      }

      .st7 {
        fill: #da291c;
      }
    </style>
  </defs>
  <path class="st4" d="M214,0c-1.07.78-2.12,1.59-3.14,2.43-4.73,3.85-9,8.24-12.72,13.07-1.24,1.6-2.41,3.25-3.52,4.95l-1.37,1.93-9.8,13.8-43.64,61.41-9.37,13.19-3.45,4.85h-48.56l4.17-5.87,32.06-45.11,26.49-37.28c.07-.09.13-.19.2-.28l.28-.4c.28-.39.56-.78.85-1.17.04-.05.07-.1.11-.15.12-.16.24-.32.36-.48,4.63-6.04,10.32-11.22,16.78-15.27,1.32-.83,2.67-1.6,4.05-2.33.23-.12.46-.24.68-.35.21-.11.41-.21.62-.32.44-.22.88-.43,1.32-.64.1-.04.19-.09.29-.13.17-.08.34-.16.51-.23.08-.04.17-.08.25-.11.11-.05.22-.1.34-.15.09-.04.18-.08.27-.12.14-.06.29-.12.43-.18.14-.06.29-.12.43-.18.27-.11.53-.22.8-.33.04-.02.08-.04.13-.05.12-.05.25-.1.37-.15,0,0,.02,0,.03-.01.58-.22,1.15-.44,1.74-.65.15-.05.29-.1.44-.16.28-.1.57-.2.85-.29.04-.01.08-.03.12-.04.21-.07.42-.14.64-.21.1-.03.19-.06.29-.09.11-.04.22-.07.34-.1.15-.05.3-.09.45-.14.1-.03.19-.06.29-.09.14-.04.28-.08.41-.12h0c.07-.02.13-.04.2-.06.24-.07.49-.14.74-.2.25-.07.51-.13.76-.2C182.33.76,187.37.07,192.56,0h21.44Z"/>
  <path class="st1" d="M146.77,0c-1.07.78-2.12,1.59-3.14,2.43-4.73,3.85-9,8.24-12.72,13.07-1.24,1.6-2.41,3.25-3.52,4.95l-1.37,1.93-9.8,13.8-43.64,61.41-9.37,13.19-3.45,4.85H11.2l4.17-5.87,32.06-45.11,26.49-37.28c.07-.09.13-.19.2-.28l.28-.4c.28-.39.56-.78.85-1.17.04-.05.07-.1.11-.15.12-.16.24-.32.36-.48,4.63-6.04,10.32-11.22,16.78-15.27,1.32-.83,2.67-1.6,4.05-2.33.23-.12.46-.24.68-.35.21-.11.42-.21.62-.32.44-.22.88-.43,1.32-.64.1-.04.19-.09.29-.13.17-.08.34-.16.51-.23.08-.04.17-.08.25-.11.11-.05.22-.1.34-.15.09-.04.18-.08.27-.12.14-.06.29-.12.43-.18.14-.06.29-.12.43-.18.27-.11.53-.22.8-.33.04-.02.08-.04.13-.05.12-.05.25-.1.37-.15,0,0,.02,0,.03-.01.58-.22,1.15-.44,1.74-.65.15-.05.29-.1.44-.16.28-.1.57-.2.85-.29.04-.01.08-.03.12-.04.21-.07.42-.14.64-.21.1-.03.19-.06.29-.09.11-.04.22-.07.34-.1.15-.05.3-.09.45-.14.1-.03.19-.06.29-.09.14-.04.28-.08.42-.12h0c.07-.02.13-.04.2-.06.25-.07.49-.14.74-.2.25-.07.5-.13.76-.2C115.1.76,120.13.07,125.33,0h21.44Z"/>
  <path class="st7" d="M317.5,0c-25.51,8.24-48.76,21.51-68.57,38.65h0c-23.93,20.71-42.85,47.05-54.69,76.97h0v.02h-48.57l4.17-5.87,18.29-25.75s.04-.06.06-.09l1.38-1.94s.02-.03.03-.05c24.81-34.43,60.42-60.57,101.86-73.45C286.15,3.92,301.57,1.01,317.5,0h0Z"/>
  <g id="b">
    <path class="st5" d="M99.82,37.19c-11.85,0-23.6,1.08-35.08,3.11l-2.41,3.39c12.48-2.39,25.03-3.6,37.49-3.6,4.45,0,8.89.15,13.32.43l1.97-2.77c-5.05-.37-10.14-.56-15.29-.56Z"/>
    <path class="st6" d="M132.36,39.75l-1.88,2.65c5.48.83,10.91,1.88,16.28,3.15,8.37,1.98,16.62,4.51,24.67,7.55l1.74-2.44c-13.02-4.97-26.68-8.66-40.81-10.9h0Z"/>
    <path class="st3" d="M216.98,73.77c-8.55-5.93-17.58-11.23-27.01-15.83-.72.72-1.43,1.45-2.14,2.18.66.32,1.32.64,1.98.97,8.84,4.38,17.37,9.42,25.5,15.05l1.83-2.26c-.05-.04-.11-.08-.17-.12h0Z"/>
  </g>
  <path class="st0" d="M313.7,115.63h-52.24c-37.62-47.77-96.12-78.44-161.64-78.44C64.07,37.19,29.27,47.01,0,63.06,36.62,40.5,80.94,26.78,127.11,26.78c75.31,0,142.53,34.63,186.6,88.84h0Z"/>
  <g>
    <path class="st2" d="M356.63,69.3h46.86l-4.45,9.16c-.5-1.07-1.45-1.79-2.53-1.79h-12.38l-19.07,38.95h-12.12l19.06-38.95h-15.41c-1.43,0-3.16.81-4.44,1.79l4.48-9.16h0Z"/>
    <path class="st2" d="M495.81,106.76l-4.34,8.86h-45.28l21.09-43.16c.22-.5.36-1.08.36-1.69,0-.57-.11-1.11-.32-1.58h40.38l-4.46,9.13c-.5-1.07-1.45-1.79-2.54-1.79h-23.27l-5.41,11.08h23.53l-4.46,9.12c-.5-1.07-1.45-1.78-2.53-1.78h-20.13l-6.52,13.32h29.26c1.17,0,3.69-.63,4.63-1.52"/>
    <path class="st2" d="M719.42,106.76l-4.33,8.86h-34.39l21.09-43.16c.23-.5.36-1.08.36-1.69,0-.57-.11-1.11-.31-1.58h13.62l-19.03,39.09h18.37c1.17,0,3.69-.63,4.62-1.52"/>
    <path class="st2" d="M448.58,80.16c0-10.99-8.88-10.87-13.56-10.87h-24.22c.2.48.29,1.02.29,1.6,0,.62-.13,1.19-.37,1.7l-20.99,43.03h12.11l9.35-19.17h12.67l3.84,19.17h13.01c-.78-.47-1.82-1.65-2.2-3.36l-3.53-15.94c4.03-.57,13.59-6.33,13.59-16.16M426.11,89.13h-11.33l6.12-12.47h12.07c2.84,0,3.99,2.07,3.99,3.51,0,4.83-4.39,8.97-10.85,8.97"/>
    <path class="st2" d="M578.18,69.21c.2.48.32,1.02.32,1.6,0,.62-.13,1.19-.37,1.71l-21.06,43.11h12.15l22.69-46.42h-13.73,0Z"/>
    <path class="st2" d="M741.9,69.21c.2.48.32,1.02.32,1.6,0,.62-.13,1.19-.36,1.71l-21.06,43.11h12.15l22.69-46.42h-13.73Z"/>
    <path class="st2" d="M600.5,69.3h46.86l-4.45,9.16c-.5-1.07-1.44-1.79-2.52-1.79h-12.39s-19.07,38.95-19.07,38.95h-12.11l19.06-38.95h-15.41c-1.44,0-3.16.81-4.45,1.79l4.47-9.16h0Z"/>
    <path class="st2" d="M673.17,69.35h-12.51c0,1.14-.41,2.43-1.54,3.75l-36.86,42.6h10.61l8.73-10.55h22.59l.23,10.55h11.12l-2.39-46.35h0ZM647.85,97.61l15.82-19.02.38,19.02h-16.2Z"/>
    <path class="st2" d="M789.38,69.21h-12.55c0,1.14-.41,2.44-1.54,3.76l-36.98,42.73h10.64l8.77-10.59h22.66l.23,10.59h11.15l-2.39-46.49h0ZM763.98,97.55l15.86-19.08.38,19.08h-16.24,0Z"/>
    <path class="st2" d="M518.34,75.68l1.5-3.06c.25-.5.38-1.08.38-1.69,0-.56-.12-1.09-.33-1.57h12.07l11.32,32.21,14.14-28.95c.25-.5.39-1.08.39-1.69,0-.56-.12-1.09-.33-1.57h9.96l-22.64,46.37h-8.68l-12.05-34.49-16.82,34.49h-8.43l19.55-40.04h0Z"/>
    <path class="st1" d="M955.11,106.96l-4.31,8.85h-44.99l20.97-43.06c.23-.5.36-1.08.36-1.69,0-.57-.11-1.1-.3-1.58h40.11l-4.43,9.11c-.5-1.06-1.44-1.78-2.52-1.78h-23.12s-5.38,11.05-5.38,11.05h23.38s-4.44,9.1-4.44,9.1c-.49-1.06-1.44-1.78-2.52-1.78h-19.99s-6.48,13.3-6.48,13.3h29.07c1.16,0,3.67-.63,4.6-1.52"/>
    <path class="st1" d="M1003.09,80.32c0-1.44-1.14-3.51-3.97-3.51h-12.03l-6.11,12.48h11.29c6.44,0,10.81-4.15,10.82-8.97M956.02,115.81l20.94-43.07c.23-.51.36-1.09.36-1.7,0-.57-.09-1.11-.29-1.59h24.13c4.66,0,13.51-.13,13.51,10.88,0,9.84-9.53,15.61-13.55,16.18l3.51,15.94c.37,1.7,1.4,2.89,2.18,3.37h-12.97l-3.83-19.19h-12.62l-9.33,19.19h-12.07"/>
    <path class="st1" d="M901.83,81.77c0-3.79-3.02-4.85-6.16-4.85h-8.02l-8.19,16.82h8.76c10.22,0,13.61-7.1,13.61-11.96M889.48,101.2h-13.66l-7.09,14.61h-11.97l20.68-42.49c.27-.56.42-1.21.43-1.9,0-.72-.17-1.4-.46-2.01h23.8c5.76.03,12.04,3.12,12.04,11.99,0,11.18-8.41,19.8-23.75,19.8"/>
    <path class="st1" d="M823.44,69.27h46.89s-4.45,9.19-4.45,9.19c-.5-1.07-1.45-1.79-2.53-1.79h-12.39s-19.08,39.13-19.08,39.13h-12.12l19.08-39.13h-15.42c-1.44,0-3.16.81-4.45,1.79l4.48-9.19Z"/>
  </g>
</svg>