<?xml version="1.0" encoding="utf-8"?>
<!-- Generator: Adobe Illustrator 28.3.0, SVG Export Plug-In . SVG Version: 6.00 Build 0)  -->
<svg version="1.1" id="Livello_1" xmlns="http://www.w3.org/2000/svg" xmlns:xlink="http://www.w3.org/1999/xlink" x="0px" y="0px"
	 viewBox="0 0 180 58" style="enable-background:new 0 0 180 58;" xml:space="preserve">
<style type="text/css">
	.st1{fill-rule:evenodd;clip-rule:evenodd;fill:#046562;}
	.st2{fill-rule:evenodd;clip-rule:evenodd;fill:#CE152E;}
	.st3{fill-rule:evenodd;clip-rule:evenodd;fill:#DC0A2C;}
	.st4{fill:#046562;}
</style>
<g>
	<path class="st1" d="M20.7,21.9L9.7,23L2.6,37.5c5.8,0,8.7-0.6,12.1-5.4C16.1,30.1,18.7,25.9,20.7,21.9"/>
	<path class="st1" d="M50,8.6L50.8,7H27.9c-7.7,0-11.7,2.6-14.1,7.5C12.6,17,12,18.2,12,18.2h10.4c3.7-7.1,8.1-9.5,19.1-9.6H50
		L50,8.6z"/>
	<path class="st2" d="M34.6,30.1c-0.9,5.1-5,9.2-10.1,10.1c0,0-3.1,0.5-5.1,0.5S1,40.7,1,40.7l0.8-1.6c0,0,6.3,0,7.1,0
		c2.1,0,6-0.2,6-0.2c4.4-0.5,7.8-3.3,8.9-7.5l1.2-4.2c0.7-3.5,3.7-6.1,7.4-6.1l11.9-0.8l-0.6,1.1l-3.7,0.2c-2.7,0.2-4.9,2.4-5.2,5
		L34.6,30.1L34.6,30.1z"/>
	<path class="st1" d="M49.3,10.2c-13.9,0-16.1,2.3-19.3,8h15.4L49.3,10.2L49.3,10.2z"/>
	<path class="st1" d="M20.7,21.9L9.7,23L2.6,37.5c5.8,0,8.7-0.6,12.1-5.4C16.1,30.1,18.7,25.9,20.7,21.9"/>
	<path class="st1" d="M50,8.6L50.8,7H27.9c-7.7,0-11.7,2.6-14.1,7.5C12.6,17,12,18.2,12,18.2h10.4c3.7-7.1,8.1-9.5,19.1-9.6H50
		L50,8.6z"/>
	<path class="st3" d="M34.6,30.1c-0.9,5.1-5,9.2-10.1,10.1c0,0-3.1,0.5-5.1,0.5S1,40.7,1,40.7l0.8-1.6c0,0,6.3,0,7.1,0
		c2.1,0,6-0.2,6-0.2c4.4-0.5,7.8-3.3,8.9-7.5l1.2-4.2c0.7-3.5,3.7-6.1,7.4-6.1l11.9-0.8l-0.6,1.1l-3.7,0.2c-2.7,0.2-4.9,2.4-5.2,5
		L34.6,30.1L34.6,30.1z"/>
	<path class="st1" d="M49.3,10.2c-13.9,0-16.1,2.3-19.3,8h15.4L49.3,10.2L49.3,10.2z"/>
	<g>
		<path class="st4" d="M5.9,49.7C5.4,50.5,4.6,51,3.6,51C2,51,1,49.9,1,48.3s1.1-2.7,2.6-2.7c0.6,0,1.3,0.2,1.7,0.5
			c0.2,0.2,0.3,0.3,0.5,0.6l-0.9,0.5c-0.2-0.2-0.3-0.3-0.5-0.5c-0.2-0.2-0.5-0.2-0.8-0.2c-0.9,0-1.6,0.7-1.6,1.6
			c0,1,0.6,1.6,1.5,1.6c0.5,0,0.9-0.2,1.1-0.5c0.1-0.2,0.2-0.2,0.2-0.5H3.6v-1h2.5v0C6.2,48.8,6.1,49.2,5.9,49.7L5.9,49.7z"/>
		<path class="st4" d="M10.3,50.9L9,48.7v2.1H7.9v-5h1.4c0.6,0,1.3,0,1.7,0.6c0.2,0.3,0.2,0.5,0.2,0.8c0,0.5-0.2,1-0.6,1.2
			c-0.2,0.1-0.3,0.2-0.6,0.2l1.5,2.1H10.3L10.3,50.9z M9.4,46.7H9v1.3h0.4c0.3,0,0.6,0,0.8-0.3c0.1-0.1,0.1-0.2,0.1-0.3
			C10.3,46.8,9.8,46.7,9.4,46.7L9.4,46.7z"/>
		<path class="st4" d="M16.8,50.2c-0.4,0.6-1,0.8-1.7,0.8c-0.8,0-1.6-0.3-1.9-1.1C13.1,49.6,13,49.3,13,49v-3.1h1.1V49
			c0,0.3,0,0.5,0.2,0.7c0.2,0.3,0.5,0.3,0.8,0.3c0.7,0,0.9-0.4,0.9-1v-3.2h1.1v2.8C17.1,49.2,17.1,49.8,16.8,50.2L16.8,50.2z"/>
		<path class="st4" d="M22.1,48.6c-0.3,0.3-0.8,0.4-1.3,0.4h-0.5v1.9h-1.1v-5.1h1.5c0.1,0,0.2,0,0.3,0c0.5,0,1,0.2,1.4,0.6
			c0.2,0.3,0.3,0.6,0.3,1C22.5,47.8,22.4,48.2,22.1,48.6L22.1,48.6z M21,46.8c-0.1,0-0.2,0-0.3,0h-0.5V48h0.5c0.4,0,0.8-0.2,0.8-0.6
			C21.5,47.1,21.3,46.8,21,46.8L21,46.8z"/>
		<path class="st4" d="M26.9,48.6c-0.3,0.3-0.8,0.4-1.3,0.4H25v1.9h-1.1v-5.1h1.5c0.1,0,0.2,0,0.3,0c0.5,0,1,0.2,1.4,0.6
			c0.2,0.3,0.3,0.6,0.3,1C27.3,47.8,27.2,48.2,26.9,48.6L26.9,48.6z M25.8,46.8c-0.1,0-0.2,0-0.3,0H25V48h0.5c0.4,0,0.8-0.2,0.8-0.6
			C26.3,47.1,26.2,46.8,25.8,46.8L25.8,46.8z"/>
		<path class="st4" d="M31.4,51c-1.6,0-2.7-1.1-2.7-2.6s1.1-2.7,2.7-2.7s2.7,1.1,2.7,2.7S32.9,51,31.4,51L31.4,51z M31.3,46.8
			c-0.9,0-1.6,0.7-1.6,1.6c0,0.9,0.7,1.6,1.6,1.6c0.9,0,1.5-0.7,1.5-1.6C32.9,47.5,32.2,46.8,31.3,46.8L31.3,46.8z"/>
		<path class="st4" d="M40,48.7v2.1h-1.1v-5.1h2.9v1H40v1h1.8v1L40,48.7L40,48.7z"/>
		<path class="st4" d="M44.5,46.8v1h1.7v1h-1.7v1.1h1.8v1h-2.9v-5.1h2.9v1L44.5,46.8L44.5,46.8z"/>
		<path class="st4" d="M50.5,50.9l-1.3-2.1v2.1h-1.1v-5h1.4c0.6,0,1.3,0,1.7,0.6c0.2,0.3,0.2,0.5,0.2,0.8c0,0.5-0.2,1-0.6,1.2
			c-0.2,0.1-0.3,0.2-0.6,0.2l1.5,2.1H50.5L50.5,50.9z M49.5,46.7h-0.4v1.3h0.4c0.3,0,0.6,0,0.8-0.3c0.1-0.1,0.1-0.2,0.1-0.3
			C50.4,46.8,50,46.7,49.5,46.7L49.5,46.7z"/>
		<path class="st4" d="M55.6,50.9l-1.3-2.1v2.1h-1.1v-5h1.4c0.6,0,1.3,0,1.7,0.6c0.2,0.3,0.2,0.5,0.2,0.8c0,0.5-0.2,1-0.6,1.2
			c-0.2,0.1-0.3,0.2-0.6,0.2l1.5,2.1H55.6L55.6,50.9z M54.6,46.7h-0.4v1.3h0.4c0.3,0,0.6,0,0.8-0.3c0.1-0.1,0.1-0.2,0.1-0.3
			C55.5,46.8,55.1,46.7,54.6,46.7L54.6,46.7z"/>
		<path class="st4" d="M60.9,51c-1.6,0-2.7-1.1-2.7-2.6s1.1-2.7,2.7-2.7c1.6,0,2.7,1.1,2.7,2.7S62.5,51,60.9,51L60.9,51z M60.9,46.8
			c-0.9,0-1.6,0.7-1.6,1.6c0,0.9,0.7,1.6,1.6,1.6c0.9,0,1.5-0.7,1.5-1.6C62.4,47.5,61.8,46.8,60.9,46.8L60.9,46.8z"/>
		<path class="st4" d="M67.9,50.9h-1.1l-1.9-5.1h1.2l1.3,3.6l1.3-3.6h1.2L67.9,50.9L67.9,50.9z"/>
		<path class="st4" d="M71.4,50.9v-5h1.1v5.1L71.4,50.9L71.4,50.9z"/>
		<path class="st4" d="M75.5,46.8v1h1.7v1h-1.7v1.1h1.8v1h-2.9v-5.1h2.9v1L75.5,46.8L75.5,46.8z"/>
		<path class="st4" d="M85.3,50.4c-0.6,0.5-1.3,0.5-2,0.5h-1.2v-5h1c1.1,0,2.1,0.1,2.7,1.1c0.3,0.4,0.4,0.9,0.4,1.4
			C86.2,49.1,85.9,49.9,85.3,50.4L85.3,50.4z M84.6,47c-0.3-0.3-0.8-0.3-1.2-0.3h-0.2V50h0.3c1,0,1.6-0.6,1.6-1.7
			C85.1,47.8,85,47.3,84.6,47L84.6,47z"/>
		<path class="st4" d="M89.1,46.8v1h1.7v1h-1.7v1.1h1.8v1H88v-5.1h2.9v1L89.1,46.8L89.1,46.8z"/>
		<path class="st4" d="M92.7,50.9v-5h1.1v4.1h1.7v1L92.7,50.9L92.7,50.9z"/>
		<path class="st4" d="M97.3,50.9v-5h1.1v4.1h1.7v1L97.3,50.9L97.3,50.9z"/>
		<path class="st4" d="M104.4,51c-1.6,0-2.7-1.1-2.7-2.6s1.1-2.7,2.7-2.7s2.7,1.1,2.7,2.7S105.9,51,104.4,51L104.4,51z M104.3,46.8
			c-0.9,0-1.6,0.7-1.6,1.6c0,0.9,0.7,1.6,1.6,1.6c0.9,0,1.5-0.7,1.5-1.6C105.9,47.5,105.2,46.8,104.3,46.8L104.3,46.8z"/>
		<path class="st4" d="M113.1,51c-0.6,0-1.1-0.3-1.6-0.7l0.7-0.8c0.3,0.3,0.5,0.6,1,0.6c0.3,0,0.6-0.2,0.6-0.6
			c0-0.2-0.1-0.3-0.2-0.4c-0.1-0.1-0.3-0.2-0.5-0.3c-0.7-0.3-1.4-0.7-1.4-1.6c0-0.9,0.8-1.5,1.6-1.5c0.6,0,1,0.2,1.5,0.7l-0.7,0.8
			c-0.2-0.3-0.4-0.5-0.8-0.5c-0.3,0-0.5,0.2-0.5,0.5c0,0.8,2,0.6,2,2.2C115,50.4,114.1,51,113.1,51L113.1,51z"/>
		<path class="st4" d="M118.5,46.8v4.1h-1.1v-4.1h-1.1v-1h3.2v1L118.5,46.8L118.5,46.8z"/>
		<path class="st4" d="M124.8,50.9l-0.4-1h-2.1l-0.4,1h-1.2l2-5.1h1.2l2.1,5.1H124.8L124.8,50.9z M123.4,46.9l-0.7,2h1.4L123.4,46.9
			z"/>
		<path class="st4" d="M129.4,46.8v4.1h-1.1v-4.1h-1.1v-1h3.2v1L129.4,46.8L129.4,46.8z"/>
		<path class="st4" d="M134.6,51c-1.6,0-2.7-1.1-2.7-2.6s1.1-2.7,2.7-2.7s2.7,1.1,2.7,2.7S136.2,51,134.6,51L134.6,51z M134.6,46.8
			c-0.9,0-1.6,0.7-1.6,1.6c0,0.9,0.7,1.6,1.6,1.6c0.9,0,1.5-0.7,1.5-1.6C136.2,47.5,135.5,46.8,134.6,46.8L134.6,46.8z"/>
		<path class="st4" d="M142.2,50.9v-5h1.1v5.1L142.2,50.9L142.2,50.9z"/>
		<path class="st4" d="M147,46.8v4.1h-1.1v-4.1h-1.1v-1h3.2v1L147,46.8L147,46.8z"/>
		<path class="st4" d="M153.3,50.9l-0.4-1h-2.1l-0.4,1h-1.2l2-5h1.2l2.1,5.1L153.3,50.9L153.3,50.9z M151.9,46.9l-0.7,2h1.4
			L151.9,46.9z"/>
		<path class="st4" d="M156.1,50.9v-5h1.1v4.1h1.7v1L156.1,50.9L156.1,50.9z"/>
		<path class="st4" d="M160.6,50.9v-5h1.1v5.1L160.6,50.9L160.6,50.9z"/>
		<path class="st4" d="M167.2,50.9l-0.4-1h-2.1l-0.4,1h-1.2l2-5.1h1.2l2.1,5.1H167.2L167.2,50.9z M165.8,46.9l-0.7,2h1.4L165.8,46.9
			z"/>
		<path class="st4" d="M173.3,50.9l-2.4-3.4l0,3.4h-1v-5h1l2.4,3.3v-3.3h1v5.1L173.3,50.9L173.3,50.9z"/>
		<path class="st4" d="M177.3,46.8v1h1.7v1h-1.7v1.1h1.8v1h-2.9v-5.1h2.9v1L177.3,46.8L177.3,46.8z"/>
	</g>
	<path class="st4" d="M163,22.6c0.6-2.6,3-4.2,5.1-4.5c1.5-0.2,2.9-0.2,5.5,0.5l-0.7,1.5c-4.3-1.5-7.6,0.3-7.6,3.8
		c0,1.7,1.2,2.8,2.8,2.9c0.5,0,2.3-0.1,3.5-1l0.1,1.8c-1.7,0.9-4.8,1-6.7,0C163.5,26.7,162.4,25.2,163,22.6"/>
	<path class="st4" d="M80.7,25.9l-0.9,1.8h-9.2l4.3-8.8c0-0.1,0.1-0.2,0.1-0.3c0-0.1,0-0.2-0.1-0.3h8.2l-0.9,1.9
		c-0.1-0.2-0.3-0.3-0.5-0.3H77L75.8,22h4.8l-0.9,1.9c-0.1-0.2-0.3-0.3-0.5-0.3h-4.1l-1.3,2.7h6C80.1,26.2,80.6,26.1,80.7,25.9"/>
	<path class="st4" d="M84,37l3.2-3.9l0.1,3.9H84z M86.6,31.2c0,0.2-0.1,0.5-0.3,0.8l-7.6,8.8h2.2l1.8-2.2h4.6l0,2.2h2.3l-0.5-9.5
		H86.6L86.6,31.2z"/>
	<path class="st4" d="M60.1,37l3.2-3.9l0.1,3.9H60.1z M62.7,31.2c0,0.2-0.1,0.5-0.3,0.8l-7.6,8.8H57l1.8-2.2h4.6l0,2.2h2.3l-0.5-9.5
		H62.7L62.7,31.2z"/>
	<path class="st4" d="M94.6,32.5l0.3-0.6c0-0.1,0.1-0.2,0.1-0.3c0-0.1,0-0.2-0.1-0.3h2.5l2.3,6.6l2.9-6c0-0.1,0.1-0.2,0.1-0.3
		c0-0.1,0-0.2-0.1-0.3h2l-4.6,9.5h-1.8l-2.5-7l-3.4,7.1h-1.7L94.6,32.5L94.6,32.5z"/>
	<path class="st4" d="M84.7,19.5l0.3-0.6c0-0.1,0.1-0.2,0.1-0.3c0-0.1,0-0.2-0.1-0.3h2.4l2.3,6.6l2.9-5.9c0-0.1,0.1-0.2,0.1-0.3
		c0-0.1,0-0.2-0.1-0.3h2L90,27.6h-1.8l-2.4-7.1l-3.4,7.1h-1.7L84.7,19.5L84.7,19.5z"/>
	<path class="st4" d="M79.3,31.2c0,0.1,0.1,0.2,0.1,0.3c0,0.1,0,0.3-0.1,0.3l-4.3,8.9h2.5l4.7-9.5L79.3,31.2L79.3,31.2z"/>
	<path class="st4" d="M106,31.2c0,0.1,0.1,0.2,0.1,0.3c0,0.1,0,0.3-0.1,0.3l-4.3,8.9h2.5l4.6-9.6H106L106,31.2z"/>
	<path class="st4" d="M46.9,31.2c0,0.1,0.1,0.2,0.1,0.3c0,0.1,0,0.3-0.1,0.3l-4.3,8.9h2.5l4.7-9.5L46.9,31.2L46.9,31.2z"/>
	<path class="st4" d="M95.9,18.2c0,0.1,0.1,0.2,0.1,0.3c0,0.1,0,0.3-0.1,0.3l-4.3,8.8H94l4.6-9.5L95.9,18.2L95.9,18.2z"/>
	<path class="st4" d="M137.1,18.3c0,0.1,0.1,0.2,0.1,0.3c0,0.1,0,0.3-0.1,0.3l-4.3,8.8h2.4l4.6-9.5H137.1L137.1,18.3z"/>
	<path class="st4" d="M160.6,18.3c0,0.1,0.1,0.2,0.1,0.3c0,0.1,0,0.3-0.1,0.3l-4.3,8.8h2.4l4.6-9.5H160.6L160.6,18.3z"/>
	<path class="st4" d="M176.4,18.3c0,0.1,0.1,0.2,0.1,0.3c0,0.1,0,0.3-0.1,0.3l-4.3,8.8h2.4l4.6-9.5L176.4,18.3L176.4,18.3z"/>
	<path class="st4" d="M73.7,31.2l-3.9,7.9h3.7c0.3,0,0.8-0.2,1-0.3l-1,1.9h-7l4.3-8.9c0-0.1,0.1-0.2,0.1-0.3c0-0.1,0-0.2-0.1-0.3
		L73.7,31.2L73.7,31.2z"/>
	<path class="st4" d="M148.3,20.3c-0.8-0.4-1.8-0.7-2.9-0.8c-1.2-0.1-2.8,0-2.8,0.8c0,0.9,1.6,1,3.1,1.5c1.8,0.6,2.4,1.7,2.4,2.8
		c0,1.5-1,3.5-4.7,3.5c-1.4,0-3.5-0.4-5.1-1.2l1-2c0.1,1,2.9,1.4,3.2,1.4c1.4,0.1,3,0.2,3.1-1.1c0-0.8-1-1.1-2.9-1.6
		c-1.5-0.4-2.4-1.1-2.4-2.8c0-1,0.8-3.4,5.4-2.9c1,0.1,2.4,0.3,3.6,0.8L148.3,20.3L148.3,20.3z"/>
	<path class="st4" d="M119.7,24l2.4-5.1c0.1-0.2,0.1-0.5,0-0.7h2.8l-3,6.2c-1.2,2.6-3.6,3.7-5.8,3.7c-3.7,0-4.5-2.5-3.7-4.4l2.3-4.7
		c0.1-0.2,0.1-0.5,0-0.7h2.8l-3,6.2c-0.5,1,0,2.2,1.6,2.2C118,26.6,119,25.4,119.7,24"/>
	<path class="st4" d="M69.3,20.5c0-0.3-0.2-0.7-0.8-0.7H66l-1.3,2.6h2.3C68.4,22.3,69.3,21.5,69.3,20.5 M59.6,27.8l4.3-8.8
		c0-0.1,0.1-0.2,0.1-0.3c0-0.1,0-0.2,0-0.3h4.9c1,0,2.8,0,2.8,2.2c0,2-1.9,3.2-2.8,3.3l0.7,3.2c0.1,0.3,0.3,0.6,0.5,0.7h-2.7
		l-0.8-3.9H64l-1.9,3.9L59.6,27.8"/>
	<path class="st4" d="M131.3,20.5c0-0.3-0.2-0.7-0.8-0.7H128l-1.3,2.6h2.3C130.4,22.3,131.3,21.5,131.3,20.5 M121.6,27.8l4.3-8.8
		c0-0.1,0.1-0.2,0.1-0.3c0-0.1,0-0.2,0-0.3h4.9c1,0,2.8,0,2.8,2.2c0,2-1.9,3.2-2.8,3.3l0.7,3.2c0.1,0.3,0.3,0.6,0.5,0.7h-2.7
		l-0.8-3.9H126l-1.9,3.9L121.6,27.8"/>
	<path class="st4" d="M150.3,18.2h9.6l-0.9,1.9c-0.1-0.2-0.3-0.3-0.5-0.3h-2.5l-3.9,8h-2.5l3.9-8h-3.1c-0.3,0-0.6,0.2-0.9,0.3
		L150.3,18.2L150.3,18.2z"/>
	<path class="st4" d="M104.4,18.2h9.6l-0.9,1.9c-0.1-0.2-0.3-0.3-0.5-0.3H110l-3.9,8h-2.5l3.9-8h-3.1c-0.3,0-0.6,0.2-0.9,0.3
		L104.4,18.2L104.4,18.2z"/>
	<path class="st4" d="M50.7,31.2h9.6l-0.9,1.9c-0.1-0.2-0.3-0.3-0.5-0.3h-2.5l-3.9,8.1h-2.5l3.9-8.1h-3.2c-0.3,0-0.6,0.2-0.9,0.3
		L50.7,31.2L50.7,31.2z"/>
	<path class="st4" d="M53.6,18.2h9.6l-0.9,1.9c-0.1-0.2-0.3-0.3-0.5-0.3h-2.5l-3.9,8h-2.5l3.9-8h-3.1c-0.3,0-0.6,0.2-0.9,0.3
		L53.6,18.2L53.6,18.2z"/>
</g>
</svg>
