<?xml version="1.0" encoding="UTF-8"?>
<svg id="Livello_1" xmlns="http://www.w3.org/2000/svg" version="1.1" viewBox="0 0 425.2 47.9">
  <!-- Generator: Adobe Illustrator 30.1.0, SVG Export Plug-In . SVG Version: 2.1.1 Build 136)  -->
  <defs>
    <style>
      .st0 {
        fill: #e9eaef;
      }

      .st1 {
        fill: #5ca72c;
      }

      .st2 {
        fill: #dd052b;
      }
    </style>
  </defs>
  <rect class="st1" y="41.6" width="138.6" height="6.3"/>
  <rect class="st0" x="143.3" y="41.6" width="138.6" height="6.3"/>
  <rect class="st2" x="286.6" y="41.6" width="138.6" height="6.3"/>
  <polyline class="st2" points="0 32.1 8.9 32.1 8.9 21.3 22.8 21.3 22.8 14.4 8.9 14.4 8.9 7.5 24.7 7.5 24.7 .6 0 .6 0 32.1"/>
  <path class="st2" d="M60.4,18.4c1.1-1.7,1.7-3.8,1.7-6.1s-.6-4.5-1.7-6.2c-1.1-1.8-2.8-3.1-4.8-4-2.1-.9-4.6-1.4-7.4-1.4h-14.4v31.5h8.9v-8.4h4.9l5.7,8.4h9.5l-6.8-9.9c1.9-.9,3.4-2.2,4.5-3.8M51.7,8.8c.9.8,1.4,2,1.4,3.4s-.5,2.6-1.4,3.4-2.3,1.2-4.2,1.2h-5V7.6h5c1.9,0,3.2.4,4.2,1.2h0Z"/>
  <polyline class="st2" points="80.7 19.5 94.7 19.5 94.7 12.9 80.7 12.9 80.7 7.5 96.6 7.5 96.6 .6 71.9 .6 71.9 32.1 97.2 32.1 97.2 25.2 80.7 25.2 80.7 19.5"/>
  <path class="st2" d="M116.2,9.8c.8-.8,1.7-1.4,2.8-1.8,1.1-.4,2.3-.6,3.6-.6s2.9.3,4.1.9,2.3,1.5,3.4,2.7l5.7-5.1c-1.5-1.9-3.4-3.4-5.7-4.4-2.3-1-4.9-1.5-7.8-1.5s-4.8.4-6.9,1.2c-2.1.8-3.9,1.9-5.5,3.4-1.5,1.5-2.8,3.2-3.6,5.2-.9,2-1.3,4.2-1.3,6.6s.4,4.6,1.3,6.6,2.1,3.7,3.6,5.2,3.4,2.6,5.5,3.4,4.4,1.2,6.9,1.2,5.5-.5,7.8-1.6c2.3-1,4.2-2.5,5.7-4.4l-5.7-5.1c-1,1.2-2.1,2.1-3.4,2.7-1.2.6-2.6.9-4.1.9s-2.5-.2-3.6-.6-2-1-2.8-1.8-1.4-1.7-1.8-2.9c-.4-1.1-.7-2.3-.7-3.7s.2-2.6.7-3.7c.4-1.1,1-2.1,1.8-2.9"/>
  <path class="st2" d="M153.6,9.8c.8-.8,1.7-1.4,2.8-1.8,1.1-.4,2.3-.6,3.6-.6s2.9.3,4.1.9,2.3,1.5,3.4,2.7l5.7-5.1c-1.5-1.9-3.4-3.4-5.7-4.4-2.3-1-4.9-1.5-7.8-1.5s-4.8.4-6.9,1.2c-2.1.8-3.9,1.9-5.5,3.4-1.5,1.5-2.8,3.2-3.6,5.2-.9,2-1.3,4.2-1.3,6.6s.4,4.6,1.3,6.6,2.1,3.7,3.6,5.2,3.4,2.6,5.5,3.4,4.4,1.2,6.9,1.2,5.5-.5,7.8-1.6c2.3-1,4.2-2.5,5.7-4.4l-5.7-5.1c-1,1.2-2.1,2.1-3.4,2.7-1.2.6-2.6.9-4.1.9s-2.5-.2-3.6-.6-2-1-2.8-1.8-1.4-1.7-1.8-2.9c-.4-1.1-.7-2.3-.7-3.7s.2-2.6.7-3.7c.4-1.1,1-2.1,1.8-2.9"/>
  <rect class="st2" x="181.8" y=".6" width="8.9" height="31.5"/>
  <path class="st2" d="M211.4.6l-13.9,31.5h9.1l2.4-6h13.4l2.4,6h9.3L220.1.6h-8.8M211.7,19.5l4.1-10.2,4.1,10.2h-8.2Z"/>
  <path class="st2" d="M268.2,18.4c1.1-1.7,1.7-3.8,1.7-6.1s-.6-4.5-1.7-6.2c-1.1-1.8-2.8-3.1-4.8-4-2.1-.9-4.6-1.4-7.4-1.4h-14.4v31.5h8.9v-8.4h4.9l5.7,8.4h9.5l-6.8-9.9c1.9-.9,3.4-2.2,4.5-3.8M259.5,8.8c.9.8,1.4,2,1.4,3.4s-.5,2.6-1.4,3.4-2.3,1.2-4.2,1.2h-4.9V7.6h4.9c1.9,0,3.2.4,4.2,1.2Z"/>
  <path class="st2" d="M294.7,32.7c2.5,0,4.9-.4,7-1.2,2.1-.8,4-1.9,5.5-3.4,1.6-1.5,2.8-3.2,3.7-5.2s1.3-4.2,1.3-6.5-.4-4.5-1.3-6.5c-.9-2-2.1-3.7-3.7-5.2s-3.4-2.6-5.5-3.4-4.4-1.2-7-1.2-4.8.4-7,1.2c-2.1.8-4,2-5.6,3.4-1.6,1.5-2.8,3.2-3.7,5.2-.9,2-1.3,4.2-1.3,6.5s.4,4.5,1.3,6.5,2.1,3.7,3.7,5.2,3.4,2.6,5.6,3.4c2.1.8,4.5,1.2,7,1.2M286.2,16.4c0-1.4.2-2.6.7-3.7.4-1.1,1-2,1.8-2.8s1.7-1.4,2.7-1.8,2.2-.6,3.4-.6,2.3.2,3.4.6c1,.4,1.9,1,2.7,1.8.8.8,1.4,1.7,1.8,2.8.4,1.1.7,2.3.7,3.7s-.2,2.6-.7,3.7c-.4,1.1-1,2.1-1.8,2.9s-1.7,1.4-2.7,1.8-2.2.6-3.4.6-2.3-.2-3.4-.6c-1-.4-1.9-1-2.7-1.8-.8-.8-1.4-1.7-1.8-2.9-.4-1.1-.7-2.3-.7-3.7Z"/>
  <path class="st2" d="M335.8,25.5c-.8.2-1.7.3-3,.3s-3.7-.3-5.5-.9-3.5-1.3-4.9-2.2l-2.9,6.6c1.5,1,3.4,1.9,5.8,2.5,2.4.6,4.9,1,7.4,1s5.7-.5,7.8-1.4,3.6-2.2,4.6-3.7,1.6-3.2,1.6-5.1-.3-3-1-4.1c-.6-1.1-1.5-2-2.5-2.7s-2.2-1.2-3.5-1.6-2.6-.7-3.8-1c-1.3-.3-2.4-.5-3.5-.8s-1.9-.6-2.6-1c-.6-.4-1-1-1-1.6s.2-1,.5-1.4.9-.8,1.6-1c.7-.3,1.7-.4,3-.4s2.8.2,4.3.6,3,1,4.5,1.8l2.7-6.6c-1.6-.9-3.3-1.6-5.3-2-2-.5-4-.7-6.1-.7-3.1,0-5.7.5-7.7,1.4s-3.6,2.2-4.7,3.7c-1,1.5-1.6,3.2-1.6,5.1s.3,3.1,1,4.2,1.5,2,2.6,2.7c1,.7,2.2,1.2,3.5,1.6s2.5.8,3.8,1c1.3.3,2.4.5,3.5.8,1,.3,1.9.6,2.6,1,.7.4,1,1,1,1.7s-.2,1-.5,1.3c-.3.4-.9.7-1.6.9"/>
  <path class="st2" d="M371.3,25.5c-.8.2-1.7.3-3,.3s-3.7-.3-5.5-.9-3.5-1.3-4.9-2.2l-2.9,6.6c1.5,1,3.4,1.9,5.8,2.5,2.4.6,4.9,1,7.4,1s5.7-.5,7.8-1.4,3.6-2.2,4.6-3.7,1.6-3.2,1.6-5.1-.3-3-1-4.1c-.6-1.1-1.5-2-2.5-2.7s-2.2-1.2-3.5-1.6-2.6-.7-3.8-1c-1.3-.3-2.4-.5-3.5-.8s-1.9-.6-2.6-1c-.6-.4-1-1-1-1.6s.2-1,.5-1.4.9-.8,1.6-1c.8-.3,1.7-.4,3-.4s2.8.2,4.3.6,3,1,4.5,1.8l2.7-6.6c-1.6-.9-3.3-1.6-5.3-2-2-.5-4-.7-6.1-.7-3.1,0-5.7.5-7.7,1.4s-3.6,2.2-4.7,3.7c-1,1.5-1.6,3.2-1.6,5.1s.3,3.1,1,4.2,1.5,2,2.6,2.7c1,.7,2.2,1.2,3.5,1.6s2.5.8,3.8,1c1.3.3,2.4.5,3.5.8,1,.3,1.9.6,2.6,1,.7.4,1,1,1,1.7s-.2,1-.5,1.3c-.3.4-.9.7-1.6.9"/>
  <path class="st2" d="M400,26.1h13.4l2.4,6h9.3l-14-31.5h-8.8l-13.9,31.5h9.1l2.4-6M402.7,19.5l4.1-10.2,4.1,10.2h-8.2,0Z"/>
</svg>